<?xml version="1.0" encoding="utf-8"?>
<!-- Generator: Adobe Illustrator 23.0.5, SVG Export Plug-In . SVG Version: 6.00 Build 0)  -->
<svg version="1.1" id="Layer_2" xmlns="http://www.w3.org/2000/svg" xmlns:xlink="http://www.w3.org/1999/xlink" x="0px" y="0px"
	 viewBox="0 0 771.06 611.46" style="enable-background:new 0 0 771.06 611.46;" xml:space="preserve">
<style type="text/css">
	.st0{fill:#BF7A00;}
	.st1{fill:#06264C;}
	.st2{fill:#004A87;}
	.st3{fill:#19538C;}
	.st4{fill:#2066A0;}
	.st5{fill:#CC972D;}
	.st6{fill:#FFB41F;}
</style>
<polygon class="st0" points="601.87,171.41 687.96,0 358.29,331.29 420.02,408.38 557.52,325.26 601.87,171.41 "/>
<g>
	<polygon class="st1" points="179.1,224.83 179.1,505.62 294.64,611.46 189.35,505.62 189.35,505.62 189.35,224.83 179.1,224.83 	
		"/>
	<polygon class="st1" points="53.69,224.83 41.13,224.83 31.33,172.22 167.73,83.37 189.35,83.37 53.69,224.83 	"/>
	<polygon class="st1" points="611.6,408.29 625.18,429.87 724.92,408.29 611.6,294.5 611.6,408.29 	"/>
	<rect x="189.35" y="294.5" class="st1" width="211.12" height="211.12"/>
	<polygon class="st1" points="400.48,294.5 189.35,294.5 189.35,83.37 238.51,84.01 400.48,255.7 	"/>
	<rect x="400.48" y="295.05" class="st1" width="211.12" height="211.12"/>
	<polygon class="st2" points="189.35,505.62 294.64,611.46 400.48,506.17 	"/>
	<polygon class="st2" points="400.48,505.62 505.76,611.46 611.6,506.17 	"/>
	<polygon class="st2" points="189.35,83.37 46.73,172.69 53.69,224.83 189.35,224.83 	"/>
	<polygon class="st3" points="611.6,294.5 724.92,408.29 634.62,408.29 	"/>
	<polygon class="st4" points="189.35,83.37 167.73,224.83 189.35,224.83 189.35,83.37 	"/>
	<polygon class="st4" points="189.35,294.5 392.9,294.5 189.35,286.82 189.35,294.5 	"/>
	<polygon class="st4" points="189.35,505.62 400.48,294.5 200.73,505.65 	"/>
	<polygon class="st4" points="400.48,505.62 300.6,400.07 392.9,506.16 	"/>
	<polygon class="st4" points="400.48,505.62 611.6,294.5 411.86,505.65 	"/>
	<polygon class="st4" points="611.6,506.17 506.04,413.08 611.6,496.46 	"/>
	<polygon class="st4" points="400.48,294.5 473.89,373.37 408.78,294.5 	"/>
	<polygon class="st4" points="189.35,505.62 400.48,505.62 201.19,517.52 	"/>
	<polygon class="st4" points="412.31,517.52 611.6,506.17 400.48,505.62 	"/>
	<polygon class="st3" points="189.35,505.62 202.63,492.34 189.35,83.37 	"/>
	<polygon class="st3" points="53.69,224.83 70.02,224.83 61.85,181.58 182.1,87.91 46.73,172.69 	"/>
</g>
<g>
	<path class="st5" d="M192.75,83.45c2.49,0,18.87,95.49,25.29,133.47c0.43,2.52,4.07,2.42,4.36-0.12l15.22-130.97
		c0.15-1.31-0.87-2.46-2.19-2.46L192.75,83.45L192.75,83.45z"/>
</g>
<polygon class="st5" points="502.64,471.89 388.94,325.26 771.06,37.55 "/>
<polygon class="st6" points="729.32,68.98 399.91,339.41 388.94,325.26 "/>
<polygon class="st0" points="601.15,171.41 687.24,0 357.57,331.29 419.3,408.38 556.81,325.26 601.15,171.41 "/>
<g>
	<polygon class="st1" points="178.39,224.83 178.39,505.62 293.92,611.46 188.63,505.62 188.63,505.62 188.63,224.83 178.39,224.83 
			"/>
	<polygon class="st1" points="52.97,224.83 40.41,224.83 30.61,172.22 167.02,83.37 188.63,83.37 52.97,224.83 	"/>
	<polygon class="st1" points="610.88,408.29 624.46,429.87 724.2,408.29 610.88,294.5 610.88,408.29 	"/>
	<rect x="188.63" y="294.5" class="st1" width="211.12" height="211.12"/>
	<polygon class="st1" points="399.76,294.5 188.63,294.5 188.63,83.37 238.51,84.01 399.76,255.7 	"/>
	<rect x="399.76" y="295.05" class="st1" width="211.12" height="211.12"/>
	<polygon class="st2" points="188.63,505.62 293.92,611.46 399.76,506.17 	"/>
	<polygon class="st2" points="399.76,505.62 505.04,611.46 610.88,506.17 	"/>
	<polygon class="st2" points="188.63,83.37 46.02,172.69 52.97,224.83 188.63,224.83 	"/>
	<polygon class="st3" points="610.88,294.5 724.2,408.29 633.91,408.29 	"/>
	<polygon class="st4" points="188.63,83.37 167.02,224.83 188.63,224.83 188.63,83.37 	"/>
	<polygon class="st4" points="188.63,294.5 392.18,294.5 188.63,286.82 188.63,294.5 	"/>
	<polygon class="st4" points="188.63,505.62 399.76,294.5 200.01,505.65 	"/>
	<polygon class="st4" points="399.76,505.62 299.89,400.07 392.18,506.16 	"/>
	<polygon class="st4" points="399.76,505.62 610.88,294.5 411.14,505.65 	"/>
	<polygon class="st4" points="610.88,506.17 505.32,413.08 610.88,496.46 	"/>
	<polygon class="st4" points="399.76,294.5 473.18,373.37 408.06,294.5 	"/>
	<polygon class="st4" points="188.63,505.62 399.76,505.62 200.47,517.52 	"/>
	<polygon class="st4" points="411.59,517.52 610.88,506.17 399.76,505.62 	"/>
	<polygon class="st3" points="188.63,505.62 201.92,492.34 188.63,83.37 	"/>
	<polygon class="st3" points="52.97,224.83 69.3,224.83 61.13,181.58 181.39,87.91 46.02,172.69 	"/>
</g>
<polygon class="st5" points="501.93,471.89 388.22,325.26 770.34,37.55 "/>
<polygon class="st6" points="728.6,68.98 399.2,339.41 388.22,325.26 "/>
<polygon class="st4" points="378.31,217.63 403.26,249.72 400.77,294.49 369.34,237.68 "/>
<polygon class="st4" points="321.1,88.65 337.76,209.45 369.34,237.68 378.31,217.63 "/>
<polygon class="st2" points="321.1,88.65 227.15,83.37 231.68,114.63 337.76,209.45 "/>
</svg>
