<svg width="198" height="200" viewBox="0 0 198 200" fill="none" xmlns="http://www.w3.org/2000/svg">
    <path d="M50 0C36.7392 0 24.0215 10.5357 14.6447 29.2893C5.26784 48.043 1.00116e-06 73.4783 0 100C-1.00116e-06 126.522 5.26784 151.957 14.6447 170.711C24.0215 189.464 36.7392 200 50 200L50 100L50 0Z"
          fill="#06264C"/>
    <rect x="49" width="100" height="200" fill="#06264C"/>
    <path d="M148 200C161.261 200 173.979 189.464 183.355 170.711C192.732 151.957 198 126.522 198 100C198 73.4784 192.732 48.043 183.355 29.2893C173.979 10.5357 161.261 4.00466e-06 148 0L148 100V200Z"
          fill="#06264C"/>
</svg>
